# xmcd
#
# Track frame offsets: 
#        150
#        25860
#        45155
#        67498
#        88367
#        104835
#        130578
#        151732
#        170022
#        193112
#        212220
#        241645
#        260061
#
# Disc length: 3818 seconds
#
# Revision: 1
# Processed by: cddbd v1.5.2PL0 Copyright (c) Steve Scherf et al.
# Submitted via: ExactAudioCopy v0.99pb4
#
DISCID=bb0ee80d
DTITLE=Rick Tobey - Chickenhead Blues
DYEAR=2004
DGENRE=Blues
TTITLE0=I Just Want To Make Love To You
TTITLE1=Mr. Bad Luck
TTITLE2=Honeybun
TTITLE3=St. James Infirmary
TTITLE4=Jack Daniels
TTITLE5=Drifter's Blues
TTITLE6=Showbiz Blues
TTITLE7=It Takes A Lot To Laugh..
TTITLE8=Statesboro Blues
TTITLE9=I'm In Trouble
TTITLE10=If You Got The Time
TTITLE11=Travelin' Riverside Blues
TTITLE12=You My Baby
EXTD=YEAR: 2004
EXTT0=
EXTT1=
EXTT2=
EXTT3=
EXTT4=
EXTT5=
EXTT6=
EXTT7=
EXTT8=
EXTT9=
EXTT10=
EXTT11=
EXTT12=
PLAYORDER=
